<svg viewBox="0 0 18 16" fill="none"
    xmlns="http://www.w3.org/2000/svg">
    <path d="M17 0H1C0.4375 0 0 0.46875 0 1V15C0 15.5625 0.4375 16 1 16H17C17.5312 16 18 15.5625 18 15V1C18 0.46875 17.5312 0 17 0ZM16.5 14.5H1.5V9H6.4375L7.28125 11.5C7.375 11.8125 7.65625 12 7.96875 12H8C8.3125 12 8.59375 11.8125 8.6875 11.5312L10.0312 7.875L10.2812 8.53125C10.4062 8.8125 10.6562 9 11 9H14.5C14.75 9 15 8.78125 15 8.5V8C15 7.75 14.75 7.5 14.5 7.5H11.5L10.6875 5.5C10.5625 5.1875 10.25 5 9.96875 5C9.65625 5.03125 9.375 5.21875 9.28125 5.5L8.03125 9L7.6875 8.03125C7.59375 7.71875 7.3125 7.5 7 7.5H1.5V1.5H16.5V14.5Z" fill="#fff" style=""></path>
</svg>